<svg xmlns="http://www.w3.org/2000/svg" viewBox="0 0 200 200">
  <defs>
    <linearGradient id="star1" x1="0%" y1="0%" x2="100%" y2="100%">
      <stop offset="0%" style="stop-color:#FFE66D"/>
      <stop offset="100%" style="stop-color:#FFD93D"/>
    </linearGradient>
    <linearGradient id="star2" x1="0%" y1="0%" x2="100%" y2="100%">
      <stop offset="0%" style="stop-color:#FF6B6B"/>
      <stop offset="100%" style="stop-color:#EE5A5A"/>
    </linearGradient>
    <linearGradient id="star3" x1="0%" y1="0%" x2="100%" y2="100%">
      <stop offset="0%" style="stop-color:#4ECDC4"/>
      <stop offset="100%" style="stop-color:#3DB8B0"/>
    </linearGradient>
    <linearGradient id="star4" x1="0%" y1="0%" x2="100%" y2="100%">
      <stop offset="0%" style="stop-color:#A78BFA"/>
      <stop offset="100%" style="stop-color:#8B5CF6"/>
    </linearGradient>
  </defs>
  <!-- Large central star -->
  <polygon points="100,20 115,70 170,70 125,100 145,155 100,120 55,155 75,100 30,70 85,70" fill="url(#star1)"/>
  <polygon points="100,35 110,65 145,65 115,85 130,125 100,100 70,125 85,85 55,65 90,65" fill="#FFF5BA" opacity="0.5"/>
  <!-- Top left star -->
  <polygon points="35,25 40,40 55,40 43,50 48,65 35,55 22,65 27,50 15,40 30,40" fill="url(#star2)"/>
  <!-- Top right star -->
  <polygon points="165,30 170,45 185,45 173,55 178,70 165,60 152,70 157,55 145,45 160,45" fill="url(#star3)"/>
  <!-- Bottom left star -->
  <polygon points="40,150 45,165 60,165 48,175 53,190 40,180 27,190 32,175 20,165 35,165" fill="url(#star4)"/>
  <!-- Bottom right star -->
  <polygon points="160,145 165,160 180,160 168,170 173,185 160,175 147,185 152,170 140,160 155,160" fill="url(#star1)"/>
  <!-- Small accent stars -->
  <polygon points="75,45 77,50 82,50 78,53 80,58 75,55 70,58 72,53 68,50 73,50" fill="url(#star3)"/>
  <polygon points="125,45 127,50 132,50 128,53 130,58 125,55 120,58 122,53 118,50 123,50" fill="url(#star2)"/>
  <polygon points="55,100 57,105 62,105 58,108 60,113 55,110 50,113 52,108 48,105 53,105" fill="url(#star4)"/>
  <polygon points="145,100 147,105 152,105 148,108 150,113 145,110 140,113 142,108 138,105 143,105" fill="url(#star2)"/>
  <!-- Sparkles -->
  <circle cx="85" cy="35" r="2" fill="#FFF"/>
  <circle cx="115" cy="40" r="2" fill="#FFF"/>
  <circle cx="60" cy="75" r="2" fill="#FFF"/>
  <circle cx="140" cy="80" r="2" fill="#FFF"/>
  <circle cx="100" cy="170" r="3" fill="#FFE66D"/>
  <circle cx="25" cy="90" r="2" fill="#4ECDC4"/>
  <circle cx="175" cy="95" r="2" fill="#FF6B6B"/>
</svg>