<svg xmlns="http://www.w3.org/2000/svg" viewBox="0 0 200 200">
  <!-- Background glow effect -->
  <circle cx="100" cy="80" r="50" fill="#FFE66D" opacity="0.1"/>
  <circle cx="50" cy="120" r="35" fill="#FF6B6B" opacity="0.1"/>
  <circle cx="150" cy="110" r="35" fill="#4ECDC4" opacity="0.1"/>
  <!-- Main firework burst - center -->
  <circle cx="100" cy="80" r="8" fill="#FFE66D"/>
  <line x1="100" y1="80" x2="100" y2="30" stroke="#FFE66D" stroke-width="3" stroke-linecap="round"/>
  <line x1="100" y1="80" x2="100" y2="130" stroke="#FFE66D" stroke-width="3" stroke-linecap="round"/>
  <line x1="100" y1="80" x2="50" y2="80" stroke="#FFE66D" stroke-width="3" stroke-linecap="round"/>
  <line x1="100" y1="80" x2="150" y2="80" stroke="#FFE66D" stroke-width="3" stroke-linecap="round"/>
  <line x1="100" y1="80" x2="65" y2="45" stroke="#FFD93D" stroke-width="2" stroke-linecap="round"/>
  <line x1="100" y1="80" x2="135" y2="45" stroke="#FFD93D" stroke-width="2" stroke-linecap="round"/>
  <line x1="100" y1="80" x2="65" y2="115" stroke="#FFD93D" stroke-width="2" stroke-linecap="round"/>
  <line x1="100" y1="80" x2="135" y2="115" stroke="#FFD93D" stroke-width="2" stroke-linecap="round"/>
  <!-- Sparkles on main burst -->
  <circle cx="100" cy="30" r="4" fill="#FFF"/>
  <circle cx="100" cy="130" r="4" fill="#FFF"/>
  <circle cx="50" cy="80" r="4" fill="#FFF"/>
  <circle cx="150" cy="80" r="4" fill="#FFF"/>
  <circle cx="65" cy="45" r="3" fill="#FFF"/>
  <circle cx="135" cy="45" r="3" fill="#FFF"/>
  <circle cx="65" cy="115" r="3" fill="#FFF"/>
  <circle cx="135" cy="115" r="3" fill="#FFF"/>
  <!-- Left firework burst - red -->
  <circle cx="50" cy="120" r="5" fill="#FF6B6B"/>
  <line x1="50" y1="120" x2="50" y2="85" stroke="#FF6B6B" stroke-width="2" stroke-linecap="round"/>
  <line x1="50" y1="120" x2="50" y2="155" stroke="#FF6B6B" stroke-width="2" stroke-linecap="round"/>
  <line x1="50" y1="120" x2="15" y2="120" stroke="#FF6B6B" stroke-width="2" stroke-linecap="round"/>
  <line x1="50" y1="120" x2="85" y2="120" stroke="#FF6B6B" stroke-width="2" stroke-linecap="round"/>
  <line x1="50" y1="120" x2="25" y2="95" stroke="#EE5A5A" stroke-width="1.5" stroke-linecap="round"/>
  <line x1="50" y1="120" x2="75" y2="95" stroke="#EE5A5A" stroke-width="1.5" stroke-linecap="round"/>
  <line x1="50" y1="120" x2="25" y2="145" stroke="#EE5A5A" stroke-width="1.5" stroke-linecap="round"/>
  <line x1="50" y1="120" x2="75" y2="145" stroke="#EE5A5A" stroke-width="1.5" stroke-linecap="round"/>
  <!-- Sparkles on red burst -->
  <circle cx="50" cy="85" r="3" fill="#FFF"/>
  <circle cx="15" cy="120" r="3" fill="#FFF"/>
  <circle cx="25" cy="95" r="2" fill="#FFF"/>
  <circle cx="75" cy="145" r="2" fill="#FFF"/>
  <!-- Right firework burst - teal -->
  <circle cx="150" cy="110" r="5" fill="#4ECDC4"/>
  <line x1="150" y1="110" x2="150" y2="75" stroke="#4ECDC4" stroke-width="2" stroke-linecap="round"/>
  <line x1="150" y1="110" x2="150" y2="145" stroke="#4ECDC4" stroke-width="2" stroke-linecap="round"/>
  <line x1="150" y1="110" x2="115" y2="110" stroke="#4ECDC4" stroke-width="2" stroke-linecap="round"/>
  <line x1="150" y1="110" x2="185" y2="110" stroke="#4ECDC4" stroke-width="2" stroke-linecap="round"/>
  <line x1="150" y1="110" x2="125" y2="85" stroke="#3DB8B0" stroke-width="1.5" stroke-linecap="round"/>
  <line x1="150" y1="110" x2="175" y2="85" stroke="#3DB8B0" stroke-width="1.5" stroke-linecap="round"/>
  <line x1="150" y1="110" x2="125" y2="135" stroke="#3DB8B0" stroke-width="1.5" stroke-linecap="round"/>
  <line x1="150" y1="110" x2="175" y2="135" stroke="#3DB8B0" stroke-width="1.5" stroke-linecap="round"/>
  <!-- Sparkles on teal burst -->
  <circle cx="150" cy="75" r="3" fill="#FFF"/>
  <circle cx="185" cy="110" r="3" fill="#FFF"/>
  <circle cx="175" cy="85" r="2" fill="#FFF"/>
  <circle cx="125" cy="135" r="2" fill="#FFF"/>
  <!-- Small accent fireworks -->
  <circle cx="30" cy="50" r="3" fill="#A78BFA"/>
  <line x1="30" y1="50" x2="30" y2="35" stroke="#A78BFA" stroke-width="1.5" stroke-linecap="round"/>
  <line x1="30" y1="50" x2="20" y2="40" stroke="#A78BFA" stroke-width="1.5" stroke-linecap="round"/>
  <line x1="30" y1="50" x2="40" y2="40" stroke="#A78BFA" stroke-width="1.5" stroke-linecap="round"/>
  <circle cx="170" cy="40" r="3" fill="#A78BFA"/>
  <line x1="170" y1="40" x2="170" y2="25" stroke="#A78BFA" stroke-width="1.5" stroke-linecap="round"/>
  <line x1="170" y1="40" x2="160" y2="30" stroke="#A78BFA" stroke-width="1.5" stroke-linecap="round"/>
  <line x1="170" y1="40" x2="180" y2="30" stroke="#A78BFA" stroke-width="1.5" stroke-linecap="round"/>
  <!-- Falling sparkles -->
  <circle cx="80" cy="160" r="2" fill="#FFE66D"/>
  <circle cx="120" cy="170" r="2" fill="#FF6B6B"/>
  <circle cx="60" cy="175" r="2" fill="#4ECDC4"/>
  <circle cx="140" cy="165" r="2" fill="#A78BFA"/>
</svg>